<svg viewBox="0 0 1513 400" xmlns="http://www.w3.org/2000/svg"><g><g><g><g><g><line x1="29.4375" y1="377" x2="24.4375" y2="377" style="visibility: inherit;" fill="rgb(0, 0, 0)" stroke="rgb(204, 204, 204)" stroke-width="1px"></line><line x1="29.4375" y1="339.3" x2="24.4375" y2="339.3" style="visibility: inherit;" fill="rgb(0, 0, 0)" stroke="rgb(204, 204, 204)" stroke-width="1px"></line><line x1="29.4375" y1="301.6" x2="24.4375" y2="301.6" style="visibility: inherit;" fill="rgb(0, 0, 0)" stroke="rgb(204, 204, 204)" stroke-width="1px"></line><line x1="29.4375" y1="263.9" x2="24.4375" y2="263.9" style="visibility: inherit;" fill="rgb(0, 0, 0)" stroke="rgb(204, 204, 204)" stroke-width="1px"></line><line x1="29.4375" y1="226.2" x2="24.4375" y2="226.2" style="visibility: inherit;" fill="rgb(0, 0, 0)" stroke="rgb(204, 204, 204)" stroke-width="1px"></line><line x1="29.4375" y1="188.5" x2="24.4375" y2="188.5" style="visibility: inherit;" fill="rgb(0, 0, 0)" stroke="rgb(204, 204, 204)" stroke-width="1px"></line><line x1="29.4375" y1="150.8" x2="24.4375" y2="150.8" style="visibility: inherit;" fill="rgb(0, 0, 0)" stroke="rgb(204, 204, 204)" stroke-width="1px"></line><line x1="29.4375" y1="113.10000000000002" x2="24.4375" y2="113.10000000000002" style="visibility: inherit;" fill="rgb(0, 0, 0)" stroke="rgb(204, 204, 204)" stroke-width="1px"></line><line x1="29.4375" y1="75.39999999999998" x2="24.4375" y2="75.39999999999998" style="visibility: inherit;" fill="rgb(0, 0, 0)" stroke="rgb(204, 204, 204)" stroke-width="1px"></line><line x1="29.4375" y1="37.69999999999999" x2="24.4375" y2="37.69999999999999" style="visibility: inherit;" fill="rgb(0, 0, 0)" stroke="rgb(204, 204, 204)" stroke-width="1px"></line><line x1="29.4375" y1="0" x2="24.4375" y2="0" style="visibility: inherit;" fill="rgb(0, 0, 0)" stroke="rgb(204, 204, 204)" stroke-width="1px"></line></g><g transform="translate(19.4375, 0)"><text x="0" y="377" dx="0em" dy="0.3em" style="text-anchor: end; visibility: hidden; font-family: &quot;Helvetica Neue&quot;, sans-serif; font-size: 12px; font-weight: 200;" fill="rgb(50, 49, 63)" stroke="none" stroke-width="1px">-2</text><text x="0" y="339.3" dx="0em" dy="0.3em" style="text-anchor: end; visibility: inherit; font-family: &quot;Helvetica Neue&quot;, sans-serif; font-size: 12px; font-weight: 200;" fill="rgb(50, 49, 63)" stroke="none" stroke-width="1px">0</text><text x="0" y="301.6" dx="0em" dy="0.3em" style="text-anchor: end; visibility: inherit; font-family: &quot;Helvetica Neue&quot;, sans-serif; font-size: 12px; font-weight: 200;" fill="rgb(50, 49, 63)" stroke="none" stroke-width="1px">2</text><text x="0" y="263.9" dx="0em" dy="0.3em" style="text-anchor: end; visibility: inherit; font-family: &quot;Helvetica Neue&quot;, sans-serif; font-size: 12px; font-weight: 200;" fill="rgb(50, 49, 63)" stroke="none" stroke-width="1px">4</text><text x="0" y="226.2" dx="0em" dy="0.3em" style="text-anchor: end; visibility: inherit; font-family: &quot;Helvetica Neue&quot;, sans-serif; font-size: 12px; font-weight: 200;" fill="rgb(50, 49, 63)" stroke="none" stroke-width="1px">6</text><text x="0" y="188.5" dx="0em" dy="0.3em" style="text-anchor: end; visibility: inherit; font-family: &quot;Helvetica Neue&quot;, sans-serif; font-size: 12px; font-weight: 200;" fill="rgb(50, 49, 63)" stroke="none" stroke-width="1px">8</text><text x="0" y="150.8" dx="0em" dy="0.3em" style="text-anchor: end; visibility: inherit; font-family: &quot;Helvetica Neue&quot;, sans-serif; font-size: 12px; font-weight: 200;" fill="rgb(50, 49, 63)" stroke="none" stroke-width="1px">10</text><text x="0" y="113.10000000000002" dx="0em" dy="0.3em" style="text-anchor: end; visibility: inherit; font-family: &quot;Helvetica Neue&quot;, sans-serif; font-size: 12px; font-weight: 200;" fill="rgb(50, 49, 63)" stroke="none" stroke-width="1px">12</text><text x="0" y="75.39999999999998" dx="0em" dy="0.3em" style="text-anchor: end; visibility: inherit; font-family: &quot;Helvetica Neue&quot;, sans-serif; font-size: 12px; font-weight: 200;" fill="rgb(50, 49, 63)" stroke="none" stroke-width="1px">14</text><text x="0" y="37.69999999999999" dx="0em" dy="0.3em" style="text-anchor: end; visibility: inherit; font-family: &quot;Helvetica Neue&quot;, sans-serif; font-size: 12px; font-weight: 200;" fill="rgb(50, 49, 63)" stroke="none" stroke-width="1px">16</text><text x="0" y="0" dx="0em" dy="0.3em" style="text-anchor: end; visibility: hidden; font-family: &quot;Helvetica Neue&quot;, sans-serif; font-size: 12px; font-weight: 200;" fill="rgb(50, 49, 63)" stroke="none" stroke-width="1px">18</text></g><line x1="29.4375" y1="0" x2="29.4375" y2="377" fill="rgb(0, 0, 0)" stroke="rgb(204, 204, 204)" stroke-width="1px"></line></g></g><g transform="translate(29, 0)" clip-path="url(#clip_0)"><clipPath id="clip_0"><rect width="1483" height="377"></rect></clipPath><g><g><g><line x1="0" y1="0" x2="0" y2="377" fill="rgb(0, 0, 0)" stroke="rgb(60, 60, 60)" stroke-width="1px" opacity="0.25"></line><line x1="105.96875" y1="0" x2="105.96875" y2="377" fill="rgb(0, 0, 0)" stroke="rgb(60, 60, 60)" stroke-width="1px" opacity="0.25"></line><line x1="211.9375" y1="0" x2="211.9375" y2="377" fill="rgb(0, 0, 0)" stroke="rgb(60, 60, 60)" stroke-width="1px" opacity="0.25"></line><line x1="317.90625" y1="0" x2="317.90625" y2="377" fill="rgb(0, 0, 0)" stroke="rgb(60, 60, 60)" stroke-width="1px" opacity="0.25"></line><line x1="423.875" y1="0" x2="423.875" y2="377" fill="rgb(0, 0, 0)" stroke="rgb(60, 60, 60)" stroke-width="1px" opacity="0.25"></line><line x1="529.84375" y1="0" x2="529.84375" y2="377" fill="rgb(0, 0, 0)" stroke="rgb(60, 60, 60)" stroke-width="1px" opacity="0.25"></line><line x1="635.8125" y1="0" x2="635.8125" y2="377" fill="rgb(0, 0, 0)" stroke="rgb(60, 60, 60)" stroke-width="1px" opacity="0.25"></line><line x1="741.78125" y1="0" x2="741.78125" y2="377" fill="rgb(0, 0, 0)" stroke="rgb(60, 60, 60)" stroke-width="1px" opacity="0.25"></line><line x1="847.75" y1="0" x2="847.75" y2="377" fill="rgb(0, 0, 0)" stroke="rgb(60, 60, 60)" stroke-width="1px" opacity="0.25"></line><line x1="953.7187500000001" y1="0" x2="953.7187500000001" y2="377" fill="rgb(0, 0, 0)" stroke="rgb(60, 60, 60)" stroke-width="1px" opacity="0.25"></line><line x1="1059.6875" y1="0" x2="1059.6875" y2="377" fill="rgb(0, 0, 0)" stroke="rgb(60, 60, 60)" stroke-width="1px" opacity="0.25"></line><line x1="1165.65625" y1="0" x2="1165.65625" y2="377" fill="rgb(0, 0, 0)" stroke="rgb(60, 60, 60)" stroke-width="1px" opacity="0.25"></line><line x1="1271.625" y1="0" x2="1271.625" y2="377" fill="rgb(0, 0, 0)" stroke="rgb(60, 60, 60)" stroke-width="1px" opacity="0.25"></line><line x1="1377.59375" y1="0" x2="1377.59375" y2="377" fill="rgb(0, 0, 0)" stroke="rgb(60, 60, 60)" stroke-width="1px" opacity="0.25"></line><line x1="1483.5625" y1="0" x2="1483.5625" y2="377" fill="rgb(0, 0, 0)" stroke="rgb(60, 60, 60)" stroke-width="1px" opacity="0.25"></line></g><g><line x1="0" y1="377" x2="1483.5625" y2="377" fill="rgb(0, 0, 0)" stroke="rgb(60, 60, 60)" stroke-width="1px" opacity="0.25"></line><line x1="0" y1="339.3" x2="1483.5625" y2="339.3" fill="rgb(0, 0, 0)" stroke="rgb(60, 60, 60)" stroke-width="1px" opacity="0.25"></line><line x1="0" y1="301.6" x2="1483.5625" y2="301.6" fill="rgb(0, 0, 0)" stroke="rgb(60, 60, 60)" stroke-width="1px" opacity="0.25"></line><line x1="0" y1="263.9" x2="1483.5625" y2="263.9" fill="rgb(0, 0, 0)" stroke="rgb(60, 60, 60)" stroke-width="1px" opacity="0.25"></line><line x1="0" y1="226.2" x2="1483.5625" y2="226.2" fill="rgb(0, 0, 0)" stroke="rgb(60, 60, 60)" stroke-width="1px" opacity="0.25"></line><line x1="0" y1="188.5" x2="1483.5625" y2="188.5" fill="rgb(0, 0, 0)" stroke="rgb(60, 60, 60)" stroke-width="1px" opacity="0.25"></line><line x1="0" y1="150.8" x2="1483.5625" y2="150.8" fill="rgb(0, 0, 0)" stroke="rgb(60, 60, 60)" stroke-width="1px" opacity="0.25"></line><line x1="0" y1="113.10000000000002" x2="1483.5625" y2="113.10000000000002" fill="rgb(0, 0, 0)" stroke="rgb(60, 60, 60)" stroke-width="1px" opacity="0.25"></line><line x1="0" y1="75.39999999999998" x2="1483.5625" y2="75.39999999999998" fill="rgb(0, 0, 0)" stroke="rgb(60, 60, 60)" stroke-width="1px" opacity="0.25"></line><line x1="0" y1="37.69999999999999" x2="1483.5625" y2="37.69999999999999" fill="rgb(0, 0, 0)" stroke="rgb(60, 60, 60)" stroke-width="1px" opacity="0.25"></line><line x1="0" y1="0" x2="1483.5625" y2="0" fill="rgb(0, 0, 0)" stroke="rgb(60, 60, 60)" stroke-width="1px" opacity="0.25"></line></g></g></g><g><g><line x1="0" y1="339.3" x2="1483.5625" y2="339.3" fill="rgb(0, 0, 0)" stroke="rgb(153, 153, 153)" stroke-width="1.5px"></line></g></g><g><g><line x1="105.96875" y1="0" x2="105.96875" y2="377" fill="rgb(0, 0, 0)" stroke="rgb(153, 153, 153)" stroke-width="1.5px"></line></g></g><g><g><g><g><g><path stroke="rgb(255, 112, 67)" stroke-width="2px" d="M106.92246875000001,-22.559828186035134L108.19409375,26.501060807077465L108.353046875,-7.950508661023775L109.730640625,7.200026877476148L110.94928125,32.69238463674708L114.34028124999999,37.27613270942709L114.817140625,54.433608941491855L118.10217187500001,-5.5773078398648295L119.47976562499998,-9.59431523082219L120.433484375,4.456512779192849L122.28793750000001,17.238224997526288L122.39390625,-7.579066896770314L122.81778125,4.297909241056345L125.41401562499999,-1.3917963271256895L128.275171875,21.98934821577626L130.3415625,11.526101720782322L131.08334375,6.218904756782422L134.368375,26.76350986546572L135.798953125,22.1381087259266L136.64670312500002,32.505576103938665L137.01759375,40.3026342889022L137.070578125,31.640148643985356L139.56084375,22.037199908570756L140.249640625,17.86619650310564L140.991421875,26.9898394988698L141.52126562499998,36.72689505562698L143.79959375,42.992156491374885L144.22346875,36.451959507423624L146.501796875,46.7170329898737L146.819703125,55.90343266330228L147.561484375,60.086890502252004L147.667453125,57.25739379757698L148.46221875,52.18477293980254L148.780125,65.09572637732492L150.2636875,47.19604196465485L156.03898437499998,44.27058037274054L157.416578125,43.19530925628993L157.4695625,31.341374243859548L157.78746875,27.198007696132436L159.218046875,28.241020336459485L159.69490625,34.19109206162619L162.291140625,28.497572173122933L162.45009375,48.1833090961847L163.880671875,47.937838676540196L164.4635,46.080004951738545L167.483609375,42.88433883835802L168.49031250000002,46.3122330172406L171.8813125,45.012390068208276L172.782046875,44.23429873708449L175.6961875,39.73752609252506L175.855140625,43.28558512126574L176.596921875,36.98831034198179L176.808859375,36.225081448416006L179.352109375,40.52629886229664L179.723,36.96133976160303L180.88865625,43.05001064152134L181.52446875,56.52923187368867L182.0543125,62.09330594067205L183.64384375,62.075286817143706L184.226671875,67.54288955429342L184.968453125,64.26114771824172L186.663953125,47.85326584852294L188.2005,40.91340009835557L189.04825,40.57908925495599L189.89600000000002,42.003115366132874L190.1079375,51.04594479590355L191.008671875,50.54067866103429L192.863125,51.17868801944803L195.56532812499998,57.420238210336606L196.519046875,61.04995395930331L196.99590625,71.24313900498629L197.7376875,67.94910120144289L197.84365625,70.24410395061051L198.002609375,75.59300436945301L200.333921875,70.25754375356809L202.71821875,63.92145290597756L203.6719375,59.45315823832567L204.148796875,47.44756141480656L204.83759375,53.88073870213168L204.996546875,45.11339519680433L205.420421875,52.90287145930847L207.539796875,47.509034799520236L208.44053125000002,56.192814425339066L208.970375,66.74123485501735L209.129328125,75.38981127592882L211.99048437500002,67.43515999726264L213.84493750000001,61.47121341208941L216.017296875,72.62194082098694L216.44117187499998,75.60549630274039L216.653109375,71.78455565904511L217.02400000000003,75.63255278626053L221.84557812500003,83.37429312863696L222.48139062500002,80.78711740430879L223.11720312499997,86.06820248639906L224.176890625,80.65657554256808L224.44181249999997,77.20940516035023L224.49479687500002,71.30511034506952L225.554484375,74.11369711586434L225.81940625000001,35.228753729451626L228.203703125,44.26769584943935L228.839515625,40.24508673604072L230.21710937499998,50.53592907057907L230.69396875,60.95559759945286L232.548421875,58.450644408076755L232.60140625,65.78257726994457L232.707375,64.53432699268586L235.03868749999998,76.47447681684343L235.939421875,87.00603266816665L236.045390625,93.14005309016028L236.31031249999998,95.39918886502005L237.63492187499997,97.73492807885799L237.68790625000003,101.63102289500699L238.21775,108.62050743177537L238.32371875,109.14680049293673L238.58864062499998,99.95279276499849L239.33042187499998,105.10637292997677L240.1251875,101.46204199465132L240.919953125,101.41031195859813L241.23785937500003,103.21193193965172L248.231796875,106.05180507708286L249.185515625,108.62365453566935L251.1459375,97.09026135508759L251.88771875,105.85768951373814L253.742171875,96.78577663101038L259.4115,95.37275119515454L263.17339062499997,102.2079366412375L265.504703125,97.89135600326739L266.93528125,96.55027884668732L267.09423437500004,86.7763452558736L270.167328125,74.80802376290916L273.452359375,57.70216398593942L275.30681250000004,54.62961689834191L277.10828125,60.2323713464703L277.638125,63.6628058308533L277.8500625,71.63632071133554L277.95603125,75.34991450374923L278.009015625,77.49519949047857L281.082109375,76.47803896004928L283.201484375,86.96808620545687L284.844,82.56237738374699L286.5395,94.0432218414519L287.70515625,76.72217369924613L288.711859375,85.98713428537508L289.506625,87.94194662911502L290.354375,76.36514111800005L296.71250000000003,85.25654350984843L297.66621875,88.82768944119624L297.7721875,99.63912790962257L299.67962500000004,107.10533966061854L300.42140625,104.70066215069045L303.38853124999997,107.69947401757895L303.60046875,95.96311275730233L304.183296875,69.17142328946233L306.93848437500003,60.5959420543669L308.05115624999996,58.73510604389992L308.316078125,65.67595775709702L308.422046875,70.08367090735118L308.951890625,76.59127563162315L310.700375,81.52566206455128L314.091375,76.33647118449534L315.5749375,76.07413732265752L317.0585,86.16530701513989L319.07190625000004,92.67905212472192L319.65473437500003,81.74718166502032L319.8136875,89.58770468136612L322.833796875,87.71433784172592L323.09871875,91.94093996631068L323.681546875,94.40935231911271L327.54940625,90.03656925136454L328.18521875,89.02563546133905L328.2911875,89.88516495581445L328.60909375,77.05352603206029L329.933703125,75.46112779913113L330.198625,76.4740349094671L330.357578125,72.29759155995629L331.841140625,78.51443699618028L332.00009375,81.28187314961008L334.0135,90.06148923121617L334.702296875,96.20431717517744L334.808265625,95.3345088414074L339.09999999999997,104.29549205090069L340.848484375,86.74262970698021L343.9745625,96.31688053330129L344.875296875,68.06878241384624L345.98796875,69.73374216072762L348.69017187500003,79.68535350026838L351.1804375,65.5389460484061L353.087875,70.14205483755063L353.29981250000003,68.62166611745818L353.7236875,68.94782552654709L355.684109375,77.86383247348289L357.64453125,81.09440645669935L358.06840625,84.82122110886934L359.6579375,79.3010184230734L360.29375,79.43159548257881L360.39971875000003,77.03472506602691L362.413125,80.38602929764897L363.0489375,75.4236456366076L365.27428125,77.06666523319416L368.87721875,72.73528296882796L369.354078125,73.55758892763367L369.51303125000004,60.49964462623785L373.53984375,69.62404378096625L373.6458125,62.58510513823376L373.69879687499997,75.6048541045231L376.50696875,89.15853004460308L377.99053125,92.97174456716454L381.48749999999995,89.73052378387854L383.55389062500007,87.6336849030904L388.322484375,102.8887178577329L389.170234375,109.84722862835412L389.91201562500004,96.05677562045224L393.1440625,109.06402150859219L394.30971875,95.58564463005183L398.177578125,95.64953511071184L398.283546875,101.95077905769563L399.97904687500005,108.73977988895024L401.992453125,89.37598895189018L405.8603125,92.8928517746084L406.07224999999994,83.40698352566028L406.86701562499996,78.28232769135394L409.03937499999995,87.69102578904824L409.198328125,89.22483989914883L412.00649999999996,81.42824044176757L413.702,72.12860464484748L414.602734375,79.48188745974011L414.7616875,74.99930181723823L416.56315625,82.15812040074405L416.669125,90.09100881752619L417.04001562499997,96.70457241616094L418.94745312500004,100.06171198210598L420.06012499999997,87.04141324302316L421.33174999999994,95.48474143468701L421.596671875,85.66617364976378L421.91457812500005,90.33477928729536L423.34515625,105.81251053198974L424.40484375,105.33214254305454L424.669765625,103.34839891364987L425.46453125000005,113.17551561399353L428.00778125,100.69057836941727L430.286109375,96.8562063539764L430.81595312499996,94.01900894205266L433.465171875,90.84201451144872L434.471875,103.53471196422873L435.160671875,82.1215024463828L435.478578125,66.08480164929642L436.167375,82.6643997114843L439.187484375,88.7301121069986L440.40612500000003,87.80717058604603L440.671046875,80.5018278636602L441.942671875,90.0235441194518L443.10832812499996,94.66095634341366L443.797125,101.0504626635477L445.06874999999997,96.9317766371667L450.15525,105.88969510288479L450.36718749999994,100.49390979668846L451.426875,109.03428542908586L454.28803125,117.61411255626007L454.81787499999996,98.7337242307554L455.824578125,95.58010097225753L458.685734375,96.21966014993484L459.16259375,109.10209097886349L459.79840625,106.94552176973878L459.957359375,115.31226304694138L460.752125,105.70463644316845L460.91107812499996,105.2182386033329L461.546890625,107.87082775645928L462.97746874999996,105.5867025346758L463.18940625,99.83474129419085L463.772234375,91.6901963220256L468.69978125,96.0069759642692L469.12365625,97.61572895130075L469.918421875,67.26486848902323L473.36240625,63.7021729056076L475.05790625000003,40.854474583623585L476.4355,54.13349412145698L477.60115625000003,62.37998419638865L482.47571875000006,66.40224900516688L482.89959375,68.96253570800599L485.071953125,68.82166663484787L488.304,80.12914343545293L489.94651562499996,91.0871030342841L492.7546875,89.77057432761148L493.337515625,100.58849049714621L494.291234375,85.66293319738463L494.821078125,85.6870993150165L494.8740625,88.22540299054009L495.880765625,84.55743281325101L497.09940625,91.42866505873599L498.106109375,104.58243257843674L500.1725,105.78896788695363L500.331453125,110.99373365109199L500.70234375,114.83414514659387L501.2321875,115.98523320494786L501.391140625,103.61004909877767L502.18590625,105.76820067350377L503.934390625,99.3727356343058L504.94109375,102.35760360377316L509.12685937500004,105.01581698969568L510.9813125,110.93183932705739L511.882046875,104.77791785124543L512.6768125,113.26090515843293L513.259640625,115.05037353865436L513.577546875,128.671866512586L515.432,126.73466192271351L516.38571875,122.93814001964958L517.1275,123.75130280811277L518.1871875,130.8057091417196L518.6110625,111.75597635468375L519.14090625,93.54149890506733L520.995359375,75.80616603879145L524.492328125,88.35156958271278L524.5453125,105.69314711960453L526.2408125,101.08287695949343L529.366890625,92.91706815873147L531.2213437500001,107.24057280106456L531.8041718750001,111.5282146157304L532.439984375,108.16921962453239L533.34071875,96.94061905223111L539.3809375,105.6866816062747L539.592875,104.89531661203665L541.235390625,99.04983124313804L541.553296875,96.66907890419407L544.626390625,97.02234561246848L545.20921875,106.18315319122871L547.169640625,97.89468720110057L547.4345625,97.22745207683857L547.54053125,104.95114429953651L547.8584375,117.35363060620091L549.077078125,111.48269680964938L549.342,108.1720467862009L549.818859375,106.84639387397641L554.587453125,91.02650938274269L554.7464062500001,94.43643902994813L556.22996875,98.01480655483266L556.494890625,98.49896152804962L556.7598125,108.67641018382312L559.83290625,110.59741527216079L561.2105,102.50230407216941L561.687359375,109.54093759565467L563.43584375,110.14502560355288L563.488828125,116.03160127691649L563.9656875,123.94991810940701L566.40296875,122.62907119592725L566.6678906249999,131.45914520264296L572.284234375,126.47309815979563L573.237953125,130.55611790981797L573.39690625,127.31122628599621L574.509578125,121.1132989861091L576.36403125,114.62179216183898L576.7349218749999,101.64887472544024L577.63565625,109.72820276994025L577.741625,109.6423389748798L577.9005781249999,101.93899601901171L579.01325,110.04387499872985L579.384140625,113.89727496013768L580.60278125,124.43139380430335L581.503515625,129.36619500233374L582.457234375,129.04120624226604L582.7751406250001,127.69472448732506L583.304984375,128.5113364711945L585.742265625,121.11065964360938L586.166140625,123.13120269471321L587.2788125,123.82680543149036L591.040703125,114.80870578662626L594.80259375,120.61453293898171L595.173484375,113.21345962230976L596.6040624999999,115.63591181109501L599.094328125,118.0969301671102L599.5711875,127.1742612239999L601.2666875,109.74499664639973L602.379359375,111.73801365675513L604.6576875000001,121.75228778584591L604.816640625,115.73974790153318L605.876328125,122.60201818565199L606.24721875,118.88131168740694L607.6248125000001,117.29771152071089L611.33371875,118.78737078665432L611.810578125,124.17650437735381L612.18146875,135.45506688460284L612.870265625,130.87569618437803L614.035921875,134.22264313889252L616.049328125,134.74289029293695L617.320953125,132.65690623629186L617.638859375,134.5325019858011L618.8575,134.05559864715292L619.81121875,138.4529913342794L623.520125,138.27085379333496L625.8514375,144.2963755116272L627.335,145.6172801290817L627.4939531250001,117.10651688172226L629.613328125,115.4090108787459L630.884953125,101.66621545035622L634.3289374999999,102.89955500971354L638.46171875,113.105642516116L638.7266406250001,108.81261966350644L638.88559375,103.87891150346076L640.2631875,108.73274288920169L641.481828125,100.15677639675977L642.5945,106.61834788828651L643.4422500000001,115.44120780923566L644.7138749999999,103.57881566791474L645.614609375,101.26983103372521L649.3765,107.55845474855181L650.4361875000001,103.8702447145231L650.807078125,117.90012332877939L656.7943125,118.41396520866243L656.953265625,123.78838944375468L658.0659375,117.12303968852717L658.3308593749999,121.63903727340065L661.192015625,127.20570806331065L661.721859375,124.7543960565325L661.933796875,131.9500072521564L663.47034375,122.03998632811874L665.16584375,127.36646108970078L665.218828125,132.04371806930033L667.49715625,137.314915501033L667.974015625,127.18289639737134L668.87475,135.05510056542693L669.139671875,135.86672508949638L669.61653125,139.86622337312642L670.46428125,142.09989394257494L671.365015625,136.5551958481374L673.484390625,135.6707770514401L675.4448125,135.65140519212892L675.921671875,139.46926750723608L675.97465625,144.25462533102112L677.1403124999999,140.25281500815458L677.511203125,138.32941521643795L678.994765625,136.2246005687642L679.524609375,128.7383855909283L679.7895312500001,134.46674097867384L680.3723593750001,139.86151174031116L680.84921875,136.94020248999374L681.591,146.74054132893835L683.60440625,128.65864702041586L683.763359375,116.57102505900542L685.5648281250001,115.40928765778017L685.7767656249999,129.7246989713097L686.99540625,136.8895233475552L687.3133125,142.2490641143965L687.41928125,136.29011862996643L689.53865625,134.7280236761876L689.8565625,129.11949510941878L690.545359375,127.10065732333041L690.81028125,131.9425148564545L691.5520625,132.96642689448305L694.20128125,134.9316227365289L695.2079843749999,136.4790194495398L695.68484375,143.44314028118953L696.6385625,144.76696834291434L698.069140625,145.36363269083574L699.28778125,156.18245965355223L699.39375,164.4912464450024L699.446734375,163.5598199740251L702.5728125,164.21095393197538L703.208625,172.4152210423064L705.22203125,151.0813144947927L707.9242343750001,150.91628641597993L710.997328125,151.6198596100143L712.904765625,157.31294313133932L713.8055,119.7112258159624L714.8651875,113.15883826167942L716.507703125,111.54238407151303L716.9845624999999,96.62290591063856L717.885296875,96.1715156930336L718.309171875,96.01144545116858L718.78603125,64.06292567526253L720.4285468749999,55.68796207196965L722.4949375,53.973518219776054L723.13075,72.63110560582919L723.7665625000001,72.13188255077756L724.3493906250001,81.29287546616337L725.091171875,86.09185952789971L725.197140625,87.52647862595961L727.104578125,82.69020474102484L729.012015625,84.5277515829776L730.44259375,86.79824371288788L731.237359375,86.2078898234717L732.8268906249999,100.8359378233747L734.098515625,102.7169210483309L735.052234375,108.54022922006334L738.231296875,112.42882204550881L738.92009375,117.51266595809204L739.0260625000001,123.76564309854993L740.138734375,125.70992557042561L740.4036562499999,128.1090842184459L741.1454375,125.08936421308235L741.67528125,125.25408734530197L741.940203125,119.19796475693568L742.3110937499999,124.612452295944L743.317796875,127.9183993108793L743.9536093749999,128.93271891424567L749.09309375,142.29338811054387L749.887859375,142.23082625223304L750.4706875,144.68837463992628L750.682625,144.95229446772748L751.5303749999999,128.6962125314833L753.278859375,130.97896391989843L753.75571875,124.54976808466361L757.14671875,110.57666820261937L757.305671875,100.83538565016448L758.1534218749999,114.70048521199817L762.7630624999999,107.61950240468082L763.2399218749999,119.40457460464626L764.8824375,128.37559680326208L766.04809375,115.90327097341509L767.21375,110.56265826968928L770.657734375,113.25139144136233L771.0816093750001,127.14722174054731L773.3599374999999,113.3174622110696L774.896484375,98.13447541226486L777.333765625,106.72170592394059L778.8173281249999,100.8682618091695L781.94340625,98.8792581132227L782.7911562500001,94.87959695319898L784.4336718750001,110.13441317731645L785.9702187500001,96.95431556571583L787.294828125,80.95783877255667L787.5597499999999,92.85654088153376L788.2485468750001,101.52615644002498L789.25525,111.16454512951861L791.5335781250001,119.27337527404507L792.593265625,130.89144634124887L795.6663593750001,127.03797046170163L796.56709375,134.75299634777485L797.997671875,130.9452122054366L798.05065625,135.88244995133883L798.47453125,135.8354841100288L799.11034375,133.4959879517954L799.7461562499999,140.7286999428631L800.540921875,125.30163336196787L800.752859375,125.32903565763755L801.65359375,126.77008850991123L803.5610312499999,106.70387232440169L804.355796875,105.92880389574879L804.885640625,116.82590791359877L805.0445937499999,100.37936763264543L805.6804062499999,72.3622790959281L805.7333906250001,67.11990766407274L805.9453281250001,78.96575498474738L807.428890625,87.10225161933693L808.806484375,70.4382589479427L811.349734375,85.12258257688347L813.2571718749999,81.61187805015982L816.06534375,85.1692049450798L816.2772812500001,99.22924089435844L817.33696875,100.13949400905466L819.9332031250001,114.53286697915519L821.46975,105.00020303056829L823.69509375,114.09866673820784L826.397296875,123.56239459878415L827.1920625,132.29277518838236L827.6159375,128.71875301107397L827.9338437499999,134.7263209477481L830.742015625,139.54821233529597L830.90096875,142.540827806402L831.5897656249999,137.1904567118961L833.02034375,145.50375342456806L834.344953125,148.2577973039893L834.71584375,151.2698306601001L835.8815,108.24497846490914L837.68296875,110.79317730420928L839.5374218750001,119.84602058309997L840.7560625,132.35484059195537L841.6038125,136.04737653798594L844.411984375,146.75149354755933L845.471671875,133.83764969664864L845.6306249999999,148.97680852792902L846.1074843749999,139.43957485302312L846.1604687500001,146.552983834243L846.478375,150.9642128389146L847.5380625,141.35938459644314L847.64403125,149.50166476854318L851.98875,156.11924387474625L856.280484375,154.49275946014913L859.459546875,164.6765549200218L859.777453125,167.69481386102208L860.9960937500001,167.78953138372572L862.956515625,176.4876014797205L863.0095,150.51761804416603L863.3274062500001,149.29548263783596L863.8042656250001,152.65323659153592L864.705,145.81509664152694L865.3408125,158.03741650665964L865.65871875,142.6978456075653L866.7184062499999,157.2518735792337L868.784796875,165.43820503348988L871.434015625,160.45631984527307L873.92428125,161.0509969990438L875.8317187499999,158.78924535879366L877.10334375,158.4076549217302L877.262296875,156.46675642536863L881.236125,159.56567714876044L881.55403125,153.61284788012003L883.1435625,149.00000503623036L883.620421875,156.2929503991921L883.832359375,160.366258971219L884.150265625,162.67681947737165L887.27634375,164.19605301310918L889.0248281249999,153.33836404404312L889.0778125,158.1644097130412L889.5016874999999,145.00477580197878L889.7136250000001,145.87404046268665L890.6143593749999,152.8185057778186L890.932265625,145.8164132910096L892.57478125,153.6371147343925L894.005359375,137.54647338653302L895.0120625000001,145.10021640775827L896.7605468749999,151.74401824043593L896.8135312500001,152.32642708152298L898.08515625,157.24894035634185L902.164953125,158.48796052435148L905.5029687499999,164.7687880971948L907.7283125,169.1914991169202L907.94025,164.8646153785909L910.2715625,161.42968131227423L911.2782656249999,159.8827014785092L913.2386875,162.42790012071262L914.82821875,167.79204053619264L915.199109375,159.61096300845233L917.9013124999999,161.5305723455389L918.802046875,173.40347495319008L919.119953125,175.27140250421962L923.09378125,172.03458449558082L923.4116875,173.46890858634407L924.89525,176.0740453012952L925.795984375,173.83886560274678L925.901953125,175.49628952926562L927.597453125,175.5546335844949L929.23996875,178.4696493806322L932.3660468749999,179.70080414490815L932.948875,181.1584824431859L937.982390625,181.41430495043895L939.9428125,164.4536060857204L941.2144375,168.43253514237054L941.691296875,159.5723350787179L942.0092031250001,166.49386086440228L944.446484375,155.94625121572147L944.6054375,164.8024387438762L945.6121406249999,170.7529157566727L946.6188437500001,177.48533798525042L952.6060781250001,168.8275137347219L953.0299531249999,172.35892032404877L953.347859375,169.26579188722496L956.6858750000001,165.78134642080775L958.752265625,176.62915767821352L959.8649375,163.35558087103976L962.991015625,166.25972210711313L963.6798125,166.37114612709942L964.20965625,163.5336978428197L964.4215937499999,162.5708334582417L966.9118593750001,149.1333331469329L970.7267343750001,162.6794562295346L971.8923906250001,170.33744947748795L972.7931249999999,173.20725147578787L973.8528125,180.99140364754504L975.23040625,186.86491386796513L977.031875,190.30644257937797L977.508734375,193.63634961910483L980.475859375,192.45229832590314L983.3370156249999,185.24682790989303L984.7146093749999,182.08028156299554L984.97953125,147.84723306482283L988.741421875,143.3880376170747L988.953359375,128.55540144836954L990.6488593749999,131.0564876997118L993.24509375,140.8134991351048L996.0002812500001,138.0672357913804L996.530125,131.78867990824153L996.5831093749999,134.81032499419956L997.90771875,141.99116482925987L998.384578125,146.99336189203777L999.126359375,133.7822030881642L1001.351703125,141.11915351327644L1002.6763125,143.4263450554882L1006.650140625,146.1423137460835L1010.2000937500001,150.43910268855274L1011.842609375,149.2716500775115L1013.6440781250001,153.1737740435686L1014.86271875,139.85411092983068L1016.8761249999999,150.33843662273625L1017.141046875,151.8567872077084L1017.40596875,152.7339447429648L1019.3663906249999,154.67600070335305L1019.790265625,156.86232044426654L1020.5320468750001,143.40521034236002L1021.114875,151.39204741569085L1022.06859375,158.5855920122718L1022.1745624999999,167.12711414277453L1023.393203125,164.08455728095677L1023.4461875,173.41443678082734L1023.4991718750001,166.81585146494254L1023.6581249999999,161.2798310891468L1024.664828125,164.067032613964L1026.51928125,141.9786194812755L1027.420015625,144.73310728652774L1028.161796875,152.5737979321197L1029.27446875,143.9221586860879L1029.8043125000002,153.22147371509644L1030.2281874999999,154.63372225289615L1030.7580312500002,158.39679868035086L1033.354265625,158.26773639272955L1033.778140625,163.0542753626523L1035.473640625,168.1633163556115L1036.2154218750002,161.68320695382258L1036.533328125,168.2655404575637L1037.275109375,175.42739902090767L1037.75196875,173.38444884316687L1038.122859375,169.01461541858225L1038.17584375,173.46654995626432L1038.38778125,176.00230573010043L1039.7123906250001,176.18026292316557L1040.242234375,166.67243971102627L1040.454171875,174.9976724631178L1041.3019218749998,170.36221191465148L1042.043703125,165.87528704505522L1043.9511406249999,167.24448590250037L1044.375015625,172.7899129292776L1044.9578437500002,157.8328791673252L1047.554078125,167.28896170633453L1047.6070625,166.75657339016274L1047.871984375,162.3271421616048L1049.3025625,150.38368128998016L1051.31596875,157.6384632903004L1057.197234375,167.97006863334752L1057.67409375,171.14799982648174L1058.52184375,158.73699369854702L1058.680796875,158.8265447225598L1059.15765625,155.4739694148088L1060.64121875,161.21930777100783L1062.4426875000001,162.31326066852864L1062.495671875,160.5235043209904L1062.97253125,160.19521808643162L1063.1314843750001,170.89210032480074L1065.197875,179.09238265386625L1066.522484375,183.67603251008455L1067.42321875,185.13217646481033L1069.7545312500001,189.8150861400494L1071.02615625,170.42687488360372L1072.1918125,175.31413145270795L1073.675375,149.86760083383484L1076.53653125,145.02558351587803L1076.695484375,153.12889093606066L1078.86784375,153.8161729077851L1079.29171875,156.12296384397345L1083.583453125,151.38397778233767L1083.6364375,153.1509367069085L1088.246078125,165.18303274635787L1088.6699531250001,152.4682147841839L1091.05425,157.73624449919356L1094.2333125,156.1736845500829L1097.465359375,165.9046508891191L1097.83625,168.14887139762692L1099.372796875,167.16073530881337L1101.33321875,155.80141832681358L1102.233953125,160.13920574771038L1104.459296875,170.68060755538946L1107.002546875,160.42093038387304L1109.121921875,173.40575581634528L1110.4465312500001,182.4062070439263L1111.453234375,188.3675197234753L1111.71815625,180.07804794350295L1112.936796875,178.76264534508311L1113.20171875,183.54816149933748L1113.466640625,179.9821577769245L1114.102453125,160.18028324679065L1115.215125,156.3961993095475L1117.705390625,151.1633190522073L1118.8180625,119.2173269888292L1120.778484375,122.7418222553012L1121.626234375,131.2098954504559L1124.699328125,132.36849781863359L1126.65975,134.0336709135097L1127.030640625,124.29778235494987L1127.242578125,133.24767233616018L1128.5671875,137.69766649799857L1129.94478125,133.43141874430162L1134.39546875,139.32612458667975L1134.660390625,147.38059352220736L1137.309609375,153.90162146551887L1138.3692968750001,155.090241195531L1139.1640625,137.7271442953688L1139.3230156250002,146.67082665061434L1140.4886718750001,159.72165090765483L1140.806578125,158.51727981560762L1142.02521875,161.70787351363902L1143.349828125,166.96207648963338L1143.455796875,177.87975143835487L1144.14459375,177.77367154102512L1146.26396875,185.08491992838077L1146.581875,187.9194073810001L1147.3236562499999,185.36533722643432L1147.906484375,184.34665361670594L1148.38334375,187.42145677472297L1150.820625,185.29948087035248L1151.191515625,183.3612705114361L1151.403453125,185.76912285234422L1151.721359375,187.05537451755308L1154.8474375,182.04155474291417L1156.2780156249999,173.00842718648468L1157.4966562500001,179.84025429100595L1161.2055625,171.59536017427564L1161.7354062499999,172.03622894868002L1162.37121875,180.49376435087396L1164.1197031250001,171.52276360815415L1164.5435781249998,175.10776939713043L1165.0204374999998,183.44961853793038L1165.391328125,181.909217688776L1167.510703125,189.2489366412195L1168.1995000000002,195.24978726744942L1168.464421875,204.41894121444489L1168.782328125,201.61917774447437L1168.94128125,195.90812727006053L1172.96809375,199.43104807786736L1173.021078125,188.7793957112962L1173.127046875,187.98261524546746L1175.352390625,194.06128301598375L1175.51134375,201.98066759685645L1177.1538593750001,199.67867480796545L1178.3195156250001,200.9235757006583L1178.5844375000001,203.23643898249065L1178.7433906249998,206.93238029551856L1179.0083125,210.51839909141378L1181.180671875,183.94028357611703L1181.9754375,172.19812413406316L1182.770203125,172.77719073848675L1183.2470625,175.19727188608124L1183.35303125,171.9268889128662L1184.359734375,168.1764182346609L1185.419421875,161.49054175295356L1185.949265625,166.88507509062816L1186.691046875,167.98887609329933L1188.86340625,177.37243329722085L1188.969375,176.10931293998718L1190.13503125,181.4759843614807L1191.353671875,189.3598322391907L1193.52603125,198.54698313716642L1194.214828125,202.23756308654183L1194.2678125,207.6730703243545L1195.274515625,201.83539308031777L1195.3275,203.15212268460135L1195.43346875,202.32050045396397L1195.698390625,207.49386231719413L1196.28121875,207.6264900358226L1200.149078125,194.8766711895203L1202.1095,202.8477948604109L1202.1624843749998,207.84918832702175L1203.06321875,207.87552241971557L1203.27515625,203.46115903100787L1205.235578125,200.53957587517576L1206.87809375,198.16911166820478L1206.9310781249999,186.74538835805845L1207.09003125,186.01685214867172L1207.143015625,177.06158669736962L1208.944484375,168.4190465970067L1209.20940625,179.53145180373446L1209.686265625,175.2026222332929L1210.9578906250001,185.35092791419757L1212.706375,184.877406749441L1213.978,189.94924844620868L1214.030984375,186.63135160432677L1215.938421875,196.1353383513667L1217.951828125,203.17034584156076L1220.071203125,198.5410857677883L1220.389109375,199.73850840095517L1220.4950781250002,171.38858358052823L1220.5480625,161.18692308414685L1222.190578125,167.12182169093526L1222.6674375,168.80380099893068L1222.879375,165.36013822329448L1226.270375,167.1240786627448L1229.714359375,168.83466699798547L1230.933,161.3062023867337L1231.78075,160.07197110794493L1235.3836875,162.7075019443856L1235.542640625,153.32743114753L1235.8075625,139.1455135237285L1239.3575156250001,147.06732100943702L1240.3112343750001,155.40685745745876L1244.2850625,155.56466576459988L1246.351453125,146.54740414800924L1246.4044375,161.47099192901868L1249.742453125,166.13462433544768L1250.43125,162.1180229353426L1251.014078125,175.128664251046L1253.08046875,176.1424570189803L1253.8222500000002,172.8715506220063L1254.722984375,177.80273899413947L1255.4117812499999,180.0718557039899L1256.948328125,178.62352836608906L1257.0013125,190.30100604248065L1259.173671875,199.99713157372491L1260.4452968750002,199.85729082188143L1260.763203125,194.7079982020956L1261.822890625,201.43862126158194L1262.140796875,207.9972923137532L1263.2534687500001,216.3324508778262L1263.571375,213.27038982439115L1266.061640625,198.8150917219645L1266.7504375,200.68390101500088L1269.8765156250001,191.26030604518417L1271.572015625,188.85102895686296L1271.9429062499999,200.37758251180588L1276.39359375,200.88674959078733L1277.4532812500001,206.07021402599187L1283.2815625,193.7480902702967L1284.606171875,198.95755336565014L1284.712140625,198.92408741011238L1285.29496875,200.0305918999971L1286.725546875,197.60651639358355L1287.0964374999999,200.8756836681618L1287.679265625,193.12096962473277L1287.9441875,178.09312846727508L1288.3150781250001,169.22275456727147L1288.3680625,174.50244212037865L1289.10984375,183.05068383115417L1290.59340625,185.09305176405206L1293.7724687500001,189.3997579974064L1294.2493281250001,192.4859342839237L1294.40828125,192.67581731312717L1296.20975,191.49119236320178L1296.633625,190.50501211270617L1298.382109375,191.73610193775534L1298.488078125,179.67187641423735L1298.753,167.87241295780356L1300.4485,171.02903419082415L1301.455203125,178.3626348186587L1305.270078125,177.17179666123283L1305.376046875,185.2999624874725L1306.117828125,181.6931585490585L1307.9192968749999,184.97369218527206L1311.78715625,185.93629963033433L1312.158046875,186.1281726446721L1312.793859375,184.12771964373945L1315.39009375,184.11257507594902L1315.4960624999999,185.20952408366634L1316.078890625,188.18424482870012L1316.131875,166.33227430815617L1316.396796875,168.56296358676363L1319.787796875,173.27766031299478L1320.90046875,184.75000310666366L1321.059421875,186.55179943019448L1321.11240625,178.90157542742165L1322.331046875,178.23258852467123L1328.848125,174.66468891178235L1329.0600625000002,176.37764596111774L1329.113046875,171.85446592063184L1330.01378125,175.33806528947184L1330.808546875,174.75565574557868L1331.3383906249999,181.69121193043546L1331.92121875,184.7345211477771L1332.186140625,182.8540543483222L1332.239125,185.26424025832338L1332.4510625,180.16664715175676L1332.663,183.09587950317427L1332.9809062499999,181.55035630829659L1334.25253125,181.75368503064686L1334.782375,188.490476678587L1336.15996875,190.5040577209982L1336.2659375,184.54659068676767L1336.742796875,193.28646267497183L1338.544265625,186.7816951678125L1339.76290625,186.26790277772497L1341.564375,191.2550143511297L1342.465109375,197.75009766380802L1343.736734375,195.11373801434766L1344.7434375,201.341132680816L1345.48521875,197.6355497243189L1347.2337031250001,202.40614946265666L1353.2209375,179.67975476365967L1355.817171875,181.8380358294995L1359.04921875,181.32014435497092L1360.10890625,180.34490600437374L1360.691734375,186.29098834762377L1361.751421875,185.67456255229774L1364.930484375,186.99665204291756L1365.61928125,193.65713775758638L1367.579703125,197.32447691504385L1368.639390625,192.79342269430362L1369.22221875,190.1694415050429L1373.778875,195.57925889590518L1374.30871875,192.39211117594664L1378.9183593750001,189.8954106775155L1381.779515625,193.56475334351336L1383.7399375,201.2659465925551L1383.84590625,207.1234357741466L1385.382453125,203.43500204208414L1387.44884375,210.21583544125784L1389.99209375,206.91633419254987L1392.53534375,195.74193414026112L1392.6413125,194.9296851584936L1393.0651874999999,199.07738678958637L1394.65471875,201.00110648369755L1395.7144062500001,197.5375460329291L1395.873359375,198.53522758209436L1396.615140625,193.047696645174L1399.63525,190.1469837300005L1401.01284375,197.5092288355847" style="fill: none;" fill="none"></path></g></g></g></g><g opacity="0.2"><g><g><g><path stroke="rgb(255, 112, 67)" stroke-width="2px" d="M106.92246875000001,-22.559828186035134L108.19409375,70.6558609008789L108.353046875,-66.86269245147707L109.730640625,44.152183055877686L110.94928125,111.59378113746641L114.34028124999999,54.16994876861571L114.817140625,126.78721809387207L118.10217187500001,-287.34823970794673L119.47976562499998,-1.0851851463318098L120.433484375,86.82097773551942L122.28793750000001,96.17430438995359L122.39390625,-167.85246772766118L122.81778125,84.0199826717377L125.41401562499999,-40.88454723358154L128.275171875,189.09391622543336L130.3415625,-65.1933704376221L131.08334375,-33.580049991607666L134.368375,183.91224074363708L135.798953125,-13.867093563079834L136.64670312500002,114.46880450248716L137.01759375,102.79784193038938L137.070578125,-38.644714736938454L140.249640625,-16.678479194641113L140.991421875,103.20776600837706L141.52126562499998,118.69832286834719L143.79959375,96.10059967041013L144.22346875,-19.329296398162796L146.501796875,134.75121078491213L146.819703125,135.0762306213379L147.561484375,96.30154390335082L147.667453125,32.66632719039916L148.46221875,7.942025089263893L148.780125,178.06249489784238L150.2636875,-109.86860532760625L156.03898437499998,18.534579753875732L157.416578125,33.714084720611595L157.4695625,-73.39724502563479L157.78746875,-9.479865074157715L159.218046875,37.48938426971438L159.69490625,87.02936434745789L162.291140625,-22.13061504364009L162.45009375,223.44587035179137L163.880671875,45.750029468536354L164.4635,29.50543737411499L167.483609375,14.349266242980946L168.49031250000002,76.94517450332643L171.8813125,33.388237953186035L172.782046875,37.27157783508301L175.6961875,-0.5248495101928938L175.855140625,75.07000060081481L176.596921875,-19.450567626953102L176.808859375,29.38182916641233L179.352109375,79.10635867118833L179.723,4.974349498748779L180.88865625,97.69796071052554L181.52446875,177.54318222999575L182.0543125,112.05887589454653L183.64384375,61.913438510894764L184.226671875,116.66288614273071L184.968453125,34.77323951721189L186.663953125,-99.60272436141963L188.2005,-21.463569355011032L189.04825,37.573839092254616L189.89600000000002,54.80575084686279L190.1079375,132.35368614196778L191.008671875,45.99719195365907L192.863125,56.91633043289187L195.56532812499998,113.55508170127871L196.519046875,93.69692697525022L196.99590625,162.93007106781005L197.7376875,38.317807340621926L197.84365625,90.88969397544861L198.002609375,123.71331782341002L200.333921875,22.256164741516102L202.71821875,6.915623950958263L203.6719375,19.250558185577404L204.148796875,-60.573666477203346L204.83759375,111.76527943611143L204.996546875,-33.77545738220215L205.420421875,122.99437322616575L207.539796875,-1.0269044876098405L208.44053125000002,134.33438363075254L208.970375,161.6634105205536L209.129328125,153.2169575214386L211.99048437500002,-4.148389244079567L213.84493750000001,7.801303005218529L216.017296875,172.9690493583679L216.44117187499998,102.45522284507751L216.653109375,37.39870948791503L217.02400000000003,110.26215257644651L221.84557812500003,153.0456569671631L222.48139062500002,57.503828954696644L223.11720312499997,133.59559268951415L224.176890625,31.95412387847898L224.44181249999997,46.18612771034242L224.49479687500002,18.1683931350708L225.554484375,99.39014916419984L225.81940625000001,-314.72540836334224L228.203703125,125.61601414680479L228.839515625,4.042470169067371L230.21710937499998,143.15151743888856L230.69396875,154.73079853057862L232.548421875,35.90645856857299L232.60140625,131.7689380645752L232.707375,53.30023307800292L235.03868749999998,183.93446002006533L235.939421875,181.788951587677L236.045390625,148.3456687927246L236.31031249999998,115.73122253417966L237.63492187499997,118.75640578269957L237.68790625000003,136.69561319351197L238.21775,171.52544355392456L238.32371875,113.88340926170349L238.58864062499998,17.207175731658936L239.33042187499998,151.48836612701416L240.1251875,68.66320886611936L240.919953125,100.94474349021914L241.23785937500003,119.42645359039307L248.231796875,131.61058077812197L249.185515625,131.7702323913574L251.1459375,-6.710005760192871L251.88771875,184.7643571853638L253.742171875,15.138733673095714L259.4115,82.65554652214053L263.17339062499997,163.72450008392332L265.504703125,59.042190265655506L266.93528125,84.48060121536253L267.09423437500004,-1.1889470100402377L273.452359375,-96.25041799545284L275.30681250000004,26.976718330383278L277.10828125,110.65711998939514L277.638125,94.5366933822632L277.8500625,143.39790692329404L277.95603125,108.77223863601682L278.009015625,96.80275397300721L281.082109375,67.32359862327576L283.201484375,181.37847023010255L284.844,42.91101355552672L286.5395,197.37078545093536L287.70515625,-79.16721000671384L288.711859375,169.37175569534304L289.506625,105.53525319099424L290.354375,-27.8260843276978L296.71250000000003,165.27914834022522L297.66621875,120.96799678802489L297.7721875,196.94205768108367L299.67962500000004,174.3012351989746L300.42140625,83.0585675239563L303.38853124999997,134.68877749443055L303.60046875,-9.664126873016357L306.93848437500003,-16.58338212966919L308.05115624999996,41.987583303451515L308.316078125,128.14361863136293L308.422046875,109.7530866622925L308.951890625,135.1597146987915L310.700375,125.93513760566714L314.091375,29.633755493164074L315.5749375,73.71313266754152L317.0585,176.98583073616027L319.07190625000004,151.3027560710907L319.65473437500003,-16.639649391174316L319.8136875,160.15240983963014L322.833796875,70.85403671264646L323.09871875,129.98035821914675L323.681546875,116.62506303787234L327.54940625,50.681522369384766L328.18521875,79.92723150253295L328.2911875,97.62093029022219L328.60909375,-38.431222724914505L329.933703125,61.12954387664797L330.198625,85.59019880294801L330.357578125,34.70960178375242L331.841140625,134.4660454273224L332.00009375,106.18879833221433L334.0135,169.0780333995819L334.702296875,151.48976831436158L334.808265625,87.50623388290404L339.09999999999997,184.94434051513673L340.848484375,-71.233130645752L343.9745625,182.4851376056671L344.875296875,-186.16409969329834L345.98796875,84.71837983131411L348.69017187500003,169.24985527992249L351.1804375,-61.77872066497798L353.087875,111.57003383636476L353.29981250000003,54.93816766738894L353.7236875,71.88326020240783L355.684109375,158.1078948497772L357.64453125,110.16957225799558L358.06840625,118.36255292892457L359.6579375,29.619194316864025L360.29375,80.60678901672361L360.39971875000003,55.46289134025574L362.413125,110.54776735305785L363.0489375,30.762192726135254L365.27428125,91.85384159088136L368.87721875,33.7528426170349L369.354078125,80.95834255218506L369.51303125000004,-57.02185401916506L373.53984375,151.74363613128662L373.6458125,-0.7653426170348894L373.69879687499997,192.7825947523117L376.50696875,211.1416134595871L377.99053125,127.2906752586365L381.48749999999995,60.559536743164074L383.55389062500007,68.76213498115538L388.322484375,240.18401441574096L389.170234375,172.47382555007937L389.91201562500004,-28.057301425933815L393.1440625,226.12923448085786L394.30971875,-25.71974725723271L398.177578125,96.22454943656919L398.283546875,158.66197457313535L399.97904687500005,169.84078736305236L401.992453125,-84.8981294631958L405.8603125,124.54461717605591L406.07224999999994,-1.965830707550026L406.86701562499996,32.16042518615723L409.03937499999995,172.36930866241454L409.198328125,103.02916688919066L412.00649999999996,11.258845329284668L413.702,-11.568117523193337L414.602734375,145.66143279075624L414.7616875,34.65603103637693L416.56315625,146.5874876499176L416.669125,161.48700456619264L417.04001562499997,156.22664480209352L418.94745312500004,130.27596807479858L420.06012499999997,-30.14127540588379L421.33174999999994,171.47469515800475L421.596671875,-2.700936412811302L421.91457812500005,132.35223002433776L423.34515625,245.11209173202514L424.40484375,101.00883064270022L424.669765625,85.49470624923708L425.46453125000005,201.6195659160614L428.00778125,-11.673856830596947L430.286109375,62.34685821533202L430.81595312499996,68.48423223495485L433.465171875,62.24906463623046L434.471875,217.7689890384674L435.160671875,-110.59738321304326L435.478578125,-78.24550552368169L436.167375,231.88078227043152L439.187484375,143.32152366638184L440.40612500000003,79.50069689750671L440.671046875,14.753743362426746L441.942671875,175.7189904212952L443.10832812499996,136.39766635894773L443.797125,158.55601954460144L445.06874999999997,59.86360239982605L450.15525,186.5109612941742L450.36718749999994,51.931842041015614L451.426875,185.89766612052915L454.28803125,194.83255670070648L454.81787499999996,-71.18977069854736L455.824578125,67.19749164581299L458.685734375,101.97569274902344L459.16259375,225.04396843910217L459.79840625,87.53639888763428L459.957359375,190.61293454170226L460.752125,19.235997009277355L460.91107812499996,100.84065804481509L461.546890625,131.74413013458252L462.97746874999996,85.02957553863524L463.18940625,48.06709012985232L463.772234375,18.389291572570812L468.69978125,134.85799274444582L469.12365625,112.09450583457948L469.918421875,-205.89287567138672L473.36240625,31.637912654876686L475.05790625000003,-164.77481031417847L476.4355,173.6446699619293L477.60115625000003,136.59839487075806L482.47571875000006,102.60263228416443L482.89959375,92.00511603355409L485.071953125,67.55384497642518L488.304,181.89643464088442L489.94651562499996,189.70873942375184L492.7546875,77.92181596755984L493.337515625,197.94973602294922L494.291234375,-48.66708250045781L494.821078125,85.90459437370299L494.8740625,111.07013607025146L495.880765625,51.545701217651356L497.09940625,153.2697552680969L498.106109375,222.9663402557373L500.1725,116.64778566360474L500.331453125,157.83662552833556L500.70234375,149.39784860610962L501.2321875,126.34502573013305L501.391140625,-7.766607856750511L502.18590625,125.19156484603883L503.934390625,41.81355028152467L504.94109375,129.2214153289795L509.12685937500004,128.9397374629974L510.9813125,164.17604036331176L511.882046875,49.3926245689392L512.6768125,189.60779092311859L513.259640625,131.1555889606476L513.577546875,251.26530327796937L515.432,109.29982061386107L516.38571875,88.76944289207461L517.1275,131.0697679042816L518.1871875,194.2953661441803L518.6110625,-59.69161872863765L520.995359375,-83.81182975769048L524.492328125,201.26020147800446L524.5453125,261.76734495162964L526.2408125,59.59044551849365L529.366890625,19.42478895187378L531.2213437500001,236.15211458206176L531.8041718750001,150.11699094772337L532.439984375,77.93826470375063L533.34071875,-4.116786098480247L539.3809375,184.40124459266661L539.592875,97.77303166389464L541.235390625,46.44046292304995L541.553296875,75.24230785369872L544.626390625,100.20174598693848L545.20921875,188.6304214000702L547.169640625,23.298493289947487L547.4345625,91.22233595848081L547.54053125,174.46437430381775L547.8584375,228.97600736618043L549.077078125,58.64429264068605L549.342,78.37619657516478L549.818859375,94.91551766395571L554.587453125,-51.35245103836064L554.7464062500001,125.12580585479736L556.22996875,130.22011427879335L556.494890625,102.85635628700254L556.7598125,200.2734480857849L559.83290625,127.88646106719972L561.2105,29.646303272247337L561.687359375,172.88863930702212L563.43584375,115.58181767463685L563.488828125,169.01078233718874L563.9656875,195.2147696018219L566.40296875,110.7414489746094L566.6678906249999,210.92981126308442L572.284234375,81.59867477416992L573.237953125,167.30329566001893L573.39690625,98.10720167160036L574.509578125,65.33195328712463L576.36403125,56.1982307434082L576.7349218749999,-15.107382202148415L577.63565625,182.44215517044069L577.741625,108.86956481933595L577.9005781249999,32.60890941619874L579.01325,182.98778581619263L579.384140625,148.57787461280822L580.60278125,219.23846340179443L581.503515625,173.77940578460692L582.457234375,126.11630740165708L582.7751406250001,115.57638869285586L583.304984375,135.86084432601928L585.742265625,54.50456819534304L586.166140625,141.31609015464784L587.2788125,130.08723006248476L591.040703125,33.64580898284913L594.80259375,172.8669773101807L595.173484375,46.60379977226256L596.6040624999999,137.43798151016233L599.094328125,140.24609537124633L599.5711875,208.8702407360077L601.2666875,-47.118384552002L602.379359375,129.6751667499542L604.6576875000001,211.88075494766235L604.816640625,61.626888942718494L605.876328125,184.36245074272153L606.24721875,85.39495320320128L607.6248125000001,103.04531002044678L611.33371875,132.19430418014525L611.810578125,172.6787066936493L612.18146875,236.96212944984435L612.870265625,89.66135988235476L614.035921875,164.3451657295227L616.049328125,139.42511467933656L617.320953125,113.8830497264862L617.638859375,151.41286373138428L618.8575,129.76346859931948L619.81121875,178.02952551841736L623.520125,136.63161592483522L625.8514375,198.52607097625733L627.335,157.5054216861725L627.4939531250001,-139.49035234451298L629.613328125,100.13145685195923L630.884953125,-22.01894340515139L634.3289374999999,113.99961104393003L638.46171875,204.9604300737381L638.7266406250001,70.17541399002073L638.88559375,59.47553806304933L640.2631875,152.41722536087036L641.481828125,22.973077964782703L642.5945,164.772491312027L643.4422500000001,194.84694709777833L644.7138749999999,-3.1827136039734114L645.614609375,80.48896932601929L649.3765,164.1560681819916L650.4361875000001,70.67635440826416L650.807078125,244.16903085708617L656.7943125,123.03854212760928L656.953265625,172.15820755958555L658.0659375,57.13489189147947L658.3308593749999,162.28301553726197L661.192015625,177.30574517250062L661.721859375,102.69258799552915L661.933796875,196.7105080127716L663.47034375,32.8497980117798L665.16584375,175.3047339439392L665.218828125,174.1390308856964L667.49715625,184.75569238662717L667.974015625,35.99472446441649L668.87475,205.90493807792663L669.139671875,143.17134580612185L669.61653125,175.8617079257965L670.46428125,162.2029290676117L671.365015625,86.65291299819944L673.484390625,127.71100788116456L675.4448125,135.47705845832826L675.921671875,173.8300283432007L675.97465625,187.32284574508668L677.1403124999999,104.23652210235593L677.511203125,121.01881709098814L678.994765625,117.2812687397003L679.524609375,61.36245079040526L679.7895312500001,186.02193946838378L680.3723593750001,188.41444859504702L680.84921875,110.64841923713686L681.591,234.9435908794403L683.60440625,-34.07840175628667L683.763359375,7.782427406311058L685.5648281250001,104.95365104675295L685.7767656249999,258.5634007930756L686.99540625,201.37294273376466L687.3133125,190.48493101596833L687.41928125,82.65960927009581L689.53865625,120.66916909217832L689.8565625,78.64273800849912L690.545359375,108.93111724853514L690.81028125,175.5192326545715L691.5520625,142.18163523674014L694.20128125,152.6183853149414L695.2079843749999,150.4055898666382L695.68484375,206.12022776603698L696.6385625,156.68142089843752L698.069140625,150.7336118221283L699.28778125,253.5519023180008L699.39375,239.2703275680542L699.446734375,155.1769817352295L702.5728125,170.07115955352782L703.208625,246.25362503528595L705.22203125,-40.92384443283083L707.9242343750001,149.43103370666506L710.997328125,157.95201835632326L712.904765625,208.55069482326508L713.8055,-218.70423002243047L714.8651875,54.187350273132324L716.507703125,96.99429636001588L716.9845624999999,-37.65239753723142L717.885296875,92.10900373458861L718.309171875,94.57081327438357L718.78603125,-223.4737523078918L720.4285468749999,-19.686710357666016L722.4949375,38.54352355003357L723.13075,240.549392080307L723.7665625000001,67.63887505531312L724.3493906250001,163.7418117046356L725.091171875,129.28271608352662L725.197140625,100.43805050849915L727.104578125,39.16373977661135L729.012015625,101.06567316055299L730.44259375,107.23267288208007L731.237359375,80.89470481872559L732.8268906249999,232.48836982250214L734.098515625,119.64577007293701L735.052234375,160.95000276565554L738.231296875,147.42615747451782L738.92009375,163.26726117134092L739.0260625000001,180.0424373626709L740.138734375,143.20846781730654L740.4036562499999,149.70151205062865L741.1454375,97.9118841648102L741.67528125,126.7365955352783L741.940203125,64.69286146163938L742.3110937499999,173.34284014701842L743.317796875,157.67192244529724L743.9536093749999,138.06159534454343L749.09309375,262.5394108772278L749.887859375,141.66776952743533L750.4706875,166.80631012916564L750.682625,147.32757291793826L751.5303749999999,-17.608524894714378L753.278859375,151.52372641563414L753.75571875,66.68700556755067L757.14671875,-15.181230735778854L757.305671875,13.163842678070068L758.1534218749999,239.48638126850128L762.7630624999999,43.89065713882445L763.2399218749999,225.47022440433503L764.8824375,209.11479659080504L766.04809375,3.6523385047912598L767.21375,62.497143936157215L770.657734375,137.44998998641967L771.0816093750001,252.2096944332123L773.3599374999999,-11.150373554229759L774.896484375,-38.512405776977516L777.333765625,184.0067805290222L778.8173281249999,48.18726477622988L781.94340625,80.97822484970095L782.7911562500001,58.88264651298522L784.4336718750001,247.4277591943741L785.9702187500001,-21.666562938690163L787.294828125,-63.01045236587527L787.5597499999999,199.94485986232758L788.2485468750001,179.55269646644592L789.25525,197.91004333496093L791.5335781250001,192.25284657478332L792.593265625,235.45408594608307L795.6663593750001,92.35668754577637L796.56709375,204.18822932243347L797.997671875,96.6751549243927L798.05065625,180.3175896644592L798.47453125,135.41279153823854L799.11034375,112.44052252769472L799.7461562499999,205.82310786247254L800.540921875,-13.541965866088844L800.752859375,125.57565631866453L801.65359375,139.73956418037415L803.5610312499999,-73.89207334518437L804.355796875,98.95318803787234L804.885640625,214.89984407424927L805.0445937499999,-47.63949489593506L805.6804062499999,-179.7915177345276L805.7333906250001,19.938564777374268L805.9453281250001,185.5783808708191L807.428890625,160.3307213306427L808.806484375,-79.53767509460454L811.349734375,217.28149523735047L813.2571718749999,50.01553730964662L816.06534375,117.18514699935912L816.2772812500001,225.76956443786622L817.33696875,108.33177204132079L819.9332031250001,244.07322371006012L821.46975,19.20622749328612L823.69509375,195.9848401069641L826.397296875,208.73594534397125L827.1920625,210.86620049476625L827.6159375,96.55255341529846L827.9338437499999,188.79443237781524L830.742015625,182.94523482322694L830.90096875,169.47436704635618L831.5897656249999,89.0371168613434L833.02034375,220.3234238386154L834.344953125,173.0441922187805L834.71584375,178.37813086509703L835.8815,-278.9786912918091L837.68296875,133.72696685791016L839.5374218750001,201.32161009311676L840.7560625,244.93422067165375L841.6038125,169.28020005226136L844.411984375,243.0885466337204L845.471671875,17.61305503845216L845.6306249999999,285.22923800945284L846.1074843749999,53.60447177886965L846.1604687500001,210.57366466522217L846.478375,190.66527388095855L847.5380625,54.915930414199806L847.64403125,222.78218631744386L851.98875,215.67745583057405L856.280484375,139.85439972877504L859.459546875,256.330714058876L859.777453125,194.85914433002472L860.9960937500001,168.6419890880585L862.956515625,254.7702323436737L863.0095,-83.21223287582393L863.3274062500001,138.2962639808655L863.8042656250001,182.87302217483523L864.705,84.27183709144595L865.3408125,268.0382952928543L865.65871875,4.6417075157165755L866.7184062499999,288.23812532424927L868.784796875,239.11518812179565L871.434015625,115.61935315132143L873.92428125,166.40309138298034L875.8317187499999,138.43348059654238L877.10334375,154.97334098815918L877.262296875,138.99866995811465L881.236125,187.4559636592865L881.55403125,100.03738446235656L883.1435625,107.48441944122317L883.620421875,221.9294586658478L883.832359375,197.02603611946105L884.150265625,183.47186403274537L887.27634375,177.8691548347473L889.0248281249999,55.61916332244874L889.0778125,201.59882073402406L889.5016874999999,26.56807060241698L889.7136250000001,153.6974224090576L890.6143593749999,215.31869361400604L890.932265625,82.79758090972899L892.57478125,224.02342772483826L894.005359375,-7.269298744201706L895.0120625000001,213.0839035987854L896.7605468749999,211.53823473453522L896.8135312500001,157.56810665130615L898.08515625,201.55155982971192L902.164953125,169.639142036438L905.5029687499999,221.29623625278472L907.7283125,208.99589829444886L907.94025,125.92266173362731L910.2715625,130.51527471542357L911.2782656249999,145.95988297462463L913.2386875,185.3346879005432L914.82821875,216.0693042755127L915.199109375,85.98126525878905L917.9013124999999,178.80705637931823L918.802046875,280.2595984220505L919.119953125,192.08275046348572L923.09378125,142.90322241783144L923.4116875,186.37782540321348L924.89525,199.5202757358551L925.795984375,153.72224831581116L925.901953125,190.41310486793517L927.597453125,176.07973008155824L929.23996875,204.70479154586792L932.3660468749999,190.7811970233917L932.948875,194.27758712768554L937.982390625,183.71670751571656L939.9428125,11.807316303253174L941.2144375,204.24289665222167L941.691296875,79.83053450584413L942.0092031250001,228.78759293556215L944.446484375,61.017764377594006L944.6054375,244.50812649726868L945.6121406249999,224.30720887184142L946.6188437500001,238.07713804244995L952.6060781250001,90.90709547996522L953.0299531249999,204.14157962799072L953.347859375,141.42763595581056L956.6858750000001,134.421337223053L958.752265625,274.25945899486544L959.8649375,43.89338960647581L962.991015625,192.39699323177337L963.6798125,167.3739623069763L964.20965625,137.99666328430175L964.4215937499999,153.90505399703977L966.9118593750001,28.19583034515381L970.7267343750001,284.59456397294997L971.8923906250001,239.2593887090683L972.7931249999999,199.03546946048738L973.8528125,251.04877319335938L975.23040625,239.7265058517456L977.031875,221.28020098209382L977.508734375,223.60551297664642L980.475859375,181.795836687088L983.3370156249999,120.39759416580199L984.7146093749999,153.58136444091798L984.97953125,-160.25020341873164L988.741421875,103.25527858734131L988.953359375,-4.938324069976829L990.6488593749999,153.566263961792L993.24509375,228.62660205364227L996.0002812500001,113.35086569786074L996.530125,75.28167695999144L996.5831093749999,162.00513076782227L997.90771875,206.61872334480285L998.384578125,192.01313545703889L999.126359375,14.88177385330198L1001.351703125,207.15170733928682L1002.6763125,164.1910689353943L1006.650140625,170.58603196144105L1010.2000937500001,189.11020317077637L1011.842609375,138.76457657814024L1013.6440781250001,188.29288973808286L1014.86271875,19.977142906188988L1016.8761249999999,244.6973678588867L1017.141046875,165.5219424724579L1017.40596875,160.6283625602722L1019.3663906249999,172.15450434684755L1019.790265625,176.53919811248778L1020.5320468750001,22.291219425201405L1021.114875,223.27358107566835L1022.06859375,223.32749338150023L1022.1745624999999,244.00081331729888L1023.393203125,136.70154552459718L1023.4461875,257.3833522796631L1023.4991718750001,107.42858362197876L1023.6581249999999,111.45564770698547L1024.664828125,189.15184633731843L1026.51928125,-56.817098712921165L1027.420015625,169.5234975337982L1028.161796875,223.1400137424469L1029.27446875,66.05740547180176L1029.8043125000002,236.9153089761734L1030.2281874999999,167.34395909309387L1030.7580312500002,192.26448652744293L1033.354265625,157.10617580413816L1033.778140625,206.13312609195708L1035.473640625,214.14468529224396L1036.2154218750002,103.36222233772276L1036.533328125,227.50654199123383L1037.275109375,239.88412609100342L1037.75196875,154.99789724349978L1038.122859375,129.68611459732057L1038.17584375,213.53396079540252L1038.38778125,198.82410769462587L1039.7123906250001,177.78187766075132L1040.242234375,81.10203080177308L1040.454171875,249.92476723194122L1041.3019218749998,128.6430669784546L1042.043703125,125.49296321868894L1043.9511406249999,179.56727561950686L1044.375015625,222.69875617027282L1044.9578437500002,23.219575309753395L1047.554078125,252.39370455741883L1047.6070625,161.9650785446167L1047.871984375,122.46226110458372L1049.3025625,42.892533445358254L1051.31596875,222.93150129318238L1057.197234375,260.9545167207718L1057.67409375,199.74938056468963L1058.52184375,47.03793854713439L1058.680796875,159.63250393867492L1059.15765625,125.30079164505003L1060.64121875,212.927352976799L1062.4426875000001,172.1588367462158L1062.495671875,144.41569719314577L1062.97253125,157.2406419754028L1063.1314843750001,267.16404047012327L1065.197875,252.89492361545564L1066.522484375,224.9288812160492L1067.42321875,198.23747205734253L1069.7545312500001,231.96127321720124L1071.02615625,-4.0670264244079135L1072.1918125,219.29944057464598L1073.675375,-79.151174736023L1076.53653125,101.44742765426633L1076.695484375,226.05865771770476L1078.86784375,160.00171065330505L1079.29171875,176.88408226966857L1083.583453125,108.73310322761535L1083.6364375,169.05356702804568L1088.246078125,273.4718971014023L1088.6699531250001,38.03485312461851L1091.05425,205.1485119342804L1094.2333125,142.11064500808715L1097.465359375,253.48334794044496L1097.83625,188.3468559741974L1099.372796875,158.267510509491L1101.33321875,53.56756548881532L1102.233953125,199.17929253578185L1104.459296875,265.55322382450106L1107.002546875,68.08383584022522L1109.121921875,290.2691847085953L1110.4465312500001,263.41026809215543L1111.453234375,242.0193338394165L1111.71815625,105.47280192375183L1112.936796875,166.9240219593048L1113.20171875,226.61780688762664L1113.466640625,147.88812427520753L1114.102453125,-18.036587524414017L1115.215125,122.33944387435912L1117.705390625,104.06739673614504L1118.8180625,-168.29660158157344L1120.778484375,154.46227965354922L1121.626234375,207.42255420684813L1124.699328125,142.79591913223265L1126.65975,149.020228767395L1127.030640625,36.674785327911366L1127.242578125,213.79668216705323L1128.5671875,177.74761395454408L1129.94478125,95.03518896102906L1134.39546875,192.37847716808318L1134.660390625,219.87081394195556L1137.309609375,212.59087295532225L1138.3692968750001,165.78781876564028L1139.1640625,-18.540727806091354L1139.3230156250002,227.1639678478241L1140.4886718750001,277.17906922101974L1140.806578125,147.67793998718264L1142.02521875,190.42321679592132L1143.349828125,214.24990327358245L1143.455796875,276.1388259768486L1144.14459375,176.81895246505735L1146.26396875,250.8861554145813L1146.581875,213.4297944545746L1147.3236562499999,162.37870583534243L1147.906484375,175.1785011291504L1148.38334375,215.09468519687653L1150.820625,166.20169773101804L1151.191515625,165.91737728118898L1151.403453125,207.43979392051696L1151.721359375,198.63163950443268L1154.8474375,136.91717677116395L1156.2780156249999,91.71027917861937L1157.4966562500001,241.3266982316971L1161.2055625,97.39131312370301L1161.7354062499999,176.0040479183197L1162.37121875,256.6115829706192L1164.1197031250001,90.78375692367553L1164.5435781249998,207.3728214979172L1165.0204374999998,258.52626080513L1165.391328125,168.04561004638674L1167.510703125,255.30640721321106L1168.1995000000002,249.25744290351867L1168.464421875,286.94132673740387L1168.782328125,176.42130651473997L1168.94128125,144.5086730003357L1172.96809375,231.13733534812928L1173.021078125,92.91452441215517L1173.127046875,180.811591053009L1175.352390625,248.7692929506302L1175.51134375,273.2551288247108L1177.1538593750001,178.9607397079468L1178.3195156250001,212.1276837348938L1178.5844375000001,224.05220851898193L1178.7433906249998,240.19585211277007L1179.0083125,242.79256825447084L1181.180671875,-55.262756061554L1181.9754375,66.51868915557861L1182.770203125,177.98879017829893L1183.2470625,196.97800221443177L1183.35303125,142.4934421539307L1184.359734375,134.4221821308136L1185.419421875,101.31765341758728L1185.949265625,215.4358751296997L1186.691046875,177.92308511734007L1188.86340625,261.82444813251493L1188.969375,164.74122972488402L1190.13503125,229.77602715492247L1191.353671875,260.3144631385803L1193.52603125,281.2313412189484L1194.214828125,235.4527826309204L1194.2678125,256.59263546466826L1195.274515625,149.29629788398745L1195.3275,215.0026891231537L1195.43346875,194.83590037822722L1195.698390625,254.05411908626556L1196.28121875,208.820139503479L1200.149078125,80.12830157279967L1202.1095,274.58790789842607L1202.1624843749998,252.86172952651978L1203.06321875,208.11252925395965L1203.27515625,163.73188853263855L1205.235578125,174.24532747268677L1206.87809375,176.8349338054657L1206.9310781249999,83.93187856674194L1207.09003125,179.46002626419067L1207.143015625,96.46419763565063L1208.944484375,90.63618569374086L1209.20940625,279.5430986642838L1209.686265625,136.24315609931944L1210.9578906250001,276.6856790423393L1212.706375,180.6157162666321L1213.978,235.5958237171173L1214.030984375,156.7702800273895L1215.938421875,281.6712190747261L1217.951828125,266.48541325330734L1220.071203125,156.87774510383605L1220.389109375,210.5153120994568L1220.4950781250002,-83.76073980331421L1220.5480625,69.3719786167145L1222.190578125,220.53590915203094L1222.6674375,183.94161477088926L1222.879375,134.36717324256898L1226.270375,182.99954261779783L1229.714359375,184.22996201515195L1230.933,93.55002088546752L1231.78075,148.96388959884644L1235.3836875,186.42727947235107L1235.542640625,68.90679397583006L1235.8075625,11.508254909515358L1239.3575156250001,218.3635883808136L1240.3112343750001,230.46268548965455L1244.2850625,156.98494052886963L1246.351453125,65.39204959869386L1246.4044375,295.7832819581032L1249.742453125,208.10731599330902L1250.43125,125.96861033439637L1251.014078125,292.2244360923767L1253.08046875,185.26659193038938L1253.8222500000002,143.43339304924012L1254.722984375,222.183434343338L1255.4117812499999,200.49390609264373L1256.948328125,165.5885823249817L1257.0013125,295.39830513000487L1259.173671875,287.2622613549232L1260.4452968750002,198.59872405529023L1260.763203125,148.36436462402344L1261.822890625,262.01422879695895L1262.140796875,267.0253317832947L1263.2534687500001,291.34887795448304L1263.571375,185.71184034347533L1266.061640625,68.7174088001251L1266.7504375,217.50318465232849L1269.8765156250001,106.4479513168335L1271.572015625,167.16753516197207L1271.9429062499999,304.1165645062923L1276.39359375,205.46925330162048L1277.4532812500001,252.72139394283295L1283.2815625,82.84897646903994L1284.606171875,245.84272122383118L1284.712140625,198.62289381027222L1285.29496875,209.98913230895997L1286.725546875,175.7898368358612L1287.0964374999999,230.29818913936614L1287.679265625,123.32854323387147L1287.9441875,42.84255805015562L1288.3150781250001,89.38938946723937L1288.3680625,222.0196300983429L1289.10984375,259.98485922813416L1290.59340625,203.47436316013335L1293.7724687500001,228.16011409759523L1294.2493281250001,220.26152086257935L1294.40828125,194.38476457595826L1296.20975,180.82956781387327L1296.633625,181.62938985824587L1298.382109375,202.81591036319733L1298.488078125,71.09384670257566L1298.753,61.6772418498993L1300.4485,199.43862528800963L1301.455203125,244.36504046916963L1305.270078125,166.45425324440004L1305.376046875,258.45345492362975L1306.117828125,149.23192310333252L1307.9192968749999,214.49849491119386L1311.78715625,194.59976663589478L1312.158046875,187.85502977371215L1312.793859375,166.12364263534545L1315.39009375,183.97627396583556L1315.4960624999999,195.08206515312196L1316.078890625,214.9567315340042L1316.131875,-30.335460376739547L1316.396796875,188.63916709423066L1319.787796875,215.7099308490753L1320.90046875,288.0010882496834L1321.059421875,202.76796634197234L1321.11240625,110.04955940246583L1322.331046875,172.2117063999176L1328.848125,142.55359239578246L1329.0600625000002,191.7942594051361L1329.113046875,131.14584555625913L1330.01378125,206.69045960903168L1330.808546875,169.51396985054015L1331.3383906249999,244.11121759414672L1331.92121875,212.12430410385133L1332.186140625,165.92985315322875L1332.239125,206.95591344833375L1332.4510625,134.2883091926575L1332.663,209.4589706659317L1332.9809062499999,167.64064755439756L1334.25253125,183.58364353179934L1334.782375,249.12160151004792L1336.15996875,208.62628710269928L1336.2659375,130.92938737869264L1336.742796875,271.94531056880953L1338.544265625,128.23878760337828L1339.76290625,181.64377126693728L1341.564375,236.13901851177215L1342.465109375,256.2058474779129L1343.736734375,171.38650116920473L1344.7434375,257.3876846790314L1345.48521875,164.28530311584473L1347.2337031250001,245.34154710769653L1353.2209375,-24.85779752731321L1355.817171875,201.26256542205812L1359.04921875,176.65912108421327L1360.10890625,171.567760848999L1360.691734375,239.8057294368744L1361.751421875,180.1267303943634L1364.930484375,198.89545745849608L1365.61928125,253.6015091896057L1367.579703125,230.33052933216095L1368.639390625,152.01393470764162L1369.22221875,166.55361080169678L1373.778875,244.26761541366577L1374.30871875,163.70778169631956L1378.9183593750001,167.4251061916351L1381.779515625,226.58883733749389L1383.7399375,270.576685833931L1383.84590625,259.8408384084702L1385.382453125,170.2390984535217L1387.44884375,271.2433360338211L1389.99209375,177.22082295417783L1392.53534375,95.17233366966246L1392.6413125,187.61944432258605L1393.0651874999999,236.4067014694214L1394.65471875,218.31458373069762L1395.7144062500001,166.3655019760132L1395.873359375,207.51436152458191L1396.615140625,143.6599182128906L1399.63525,164.04056749343874L1401.01284375,263.7694347858429" style="fill: none;" fill="none"></path></g></g></g></g></g></g><g transform="translate(29, 377)" clip-path="url(#clip_1)"><clipPath id="clip_1"><rect width="1483" height="23"></rect></clipPath><g><g><line x1="0" y1="0" x2="0" y2="5" style="visibility: inherit;" fill="rgb(0, 0, 0)" stroke="rgb(204, 204, 204)" stroke-width="1px"></line><line x1="105.96875" y1="0" x2="105.96875" y2="5" style="visibility: inherit;" fill="rgb(0, 0, 0)" stroke="rgb(204, 204, 204)" stroke-width="1px"></line><line x1="211.9375" y1="0" x2="211.9375" y2="5" style="visibility: inherit;" fill="rgb(0, 0, 0)" stroke="rgb(204, 204, 204)" stroke-width="1px"></line><line x1="317.90625" y1="0" x2="317.90625" y2="5" style="visibility: inherit;" fill="rgb(0, 0, 0)" stroke="rgb(204, 204, 204)" stroke-width="1px"></line><line x1="423.875" y1="0" x2="423.875" y2="5" style="visibility: inherit;" fill="rgb(0, 0, 0)" stroke="rgb(204, 204, 204)" stroke-width="1px"></line><line x1="529.84375" y1="0" x2="529.84375" y2="5" style="visibility: inherit;" fill="rgb(0, 0, 0)" stroke="rgb(204, 204, 204)" stroke-width="1px"></line><line x1="635.8125" y1="0" x2="635.8125" y2="5" style="visibility: inherit;" fill="rgb(0, 0, 0)" stroke="rgb(204, 204, 204)" stroke-width="1px"></line><line x1="741.78125" y1="0" x2="741.78125" y2="5" style="visibility: inherit;" fill="rgb(0, 0, 0)" stroke="rgb(204, 204, 204)" stroke-width="1px"></line><line x1="847.75" y1="0" x2="847.75" y2="5" style="visibility: inherit;" fill="rgb(0, 0, 0)" stroke="rgb(204, 204, 204)" stroke-width="1px"></line><line x1="953.7187500000001" y1="0" x2="953.7187500000001" y2="5" style="visibility: inherit;" fill="rgb(0, 0, 0)" stroke="rgb(204, 204, 204)" stroke-width="1px"></line><line x1="1059.6875" y1="0" x2="1059.6875" y2="5" style="visibility: inherit;" fill="rgb(0, 0, 0)" stroke="rgb(204, 204, 204)" stroke-width="1px"></line><line x1="1165.65625" y1="0" x2="1165.65625" y2="5" style="visibility: inherit;" fill="rgb(0, 0, 0)" stroke="rgb(204, 204, 204)" stroke-width="1px"></line><line x1="1271.625" y1="0" x2="1271.625" y2="5" style="visibility: inherit;" fill="rgb(0, 0, 0)" stroke="rgb(204, 204, 204)" stroke-width="1px"></line><line x1="1377.59375" y1="0" x2="1377.59375" y2="5" style="visibility: inherit;" fill="rgb(0, 0, 0)" stroke="rgb(204, 204, 204)" stroke-width="1px"></line><line x1="1483.5625" y1="0" x2="1483.5625" y2="5" style="visibility: inherit;" fill="rgb(0, 0, 0)" stroke="rgb(204, 204, 204)" stroke-width="1px"></line></g><g transform="translate(0, 8)"><text x="0" y="0" dx="0em" dy="0.95em" style="text-anchor: middle; visibility: hidden; font-family: &quot;Helvetica Neue&quot;, sans-serif; font-size: 12px; font-weight: 200;" fill="rgb(50, 49, 63)" stroke="none" stroke-width="1px">-2k</text><text x="105.96875" y="0" dx="0em" dy="0.95em" style="text-anchor: middle; visibility: inherit; font-family: &quot;Helvetica Neue&quot;, sans-serif; font-size: 12px; font-weight: 200;" fill="rgb(50, 49, 63)" stroke="none" stroke-width="1px">0</text><text x="211.9375" y="0" dx="0em" dy="0.95em" style="text-anchor: middle; visibility: inherit; font-family: &quot;Helvetica Neue&quot;, sans-serif; font-size: 12px; font-weight: 200;" fill="rgb(50, 49, 63)" stroke="none" stroke-width="1px">2k</text><text x="317.90625" y="0" dx="0em" dy="0.95em" style="text-anchor: middle; visibility: inherit; font-family: &quot;Helvetica Neue&quot;, sans-serif; font-size: 12px; font-weight: 200;" fill="rgb(50, 49, 63)" stroke="none" stroke-width="1px">4k</text><text x="423.875" y="0" dx="0em" dy="0.95em" style="text-anchor: middle; visibility: inherit; font-family: &quot;Helvetica Neue&quot;, sans-serif; font-size: 12px; font-weight: 200;" fill="rgb(50, 49, 63)" stroke="none" stroke-width="1px">6k</text><text x="529.84375" y="0" dx="0em" dy="0.95em" style="text-anchor: middle; visibility: inherit; font-family: &quot;Helvetica Neue&quot;, sans-serif; font-size: 12px; font-weight: 200;" fill="rgb(50, 49, 63)" stroke="none" stroke-width="1px">8k</text><text x="635.8125" y="0" dx="0em" dy="0.95em" style="text-anchor: middle; visibility: inherit; font-family: &quot;Helvetica Neue&quot;, sans-serif; font-size: 12px; font-weight: 200;" fill="rgb(50, 49, 63)" stroke="none" stroke-width="1px">10k</text><text x="741.78125" y="0" dx="0em" dy="0.95em" style="text-anchor: middle; visibility: inherit; font-family: &quot;Helvetica Neue&quot;, sans-serif; font-size: 12px; font-weight: 200;" fill="rgb(50, 49, 63)" stroke="none" stroke-width="1px">12k</text><text x="847.75" y="0" dx="0em" dy="0.95em" style="text-anchor: middle; visibility: inherit; font-family: &quot;Helvetica Neue&quot;, sans-serif; font-size: 12px; font-weight: 200;" fill="rgb(50, 49, 63)" stroke="none" stroke-width="1px">14k</text><text x="953.7187500000001" y="0" dx="0em" dy="0.95em" style="text-anchor: middle; visibility: inherit; font-family: &quot;Helvetica Neue&quot;, sans-serif; font-size: 12px; font-weight: 200;" fill="rgb(50, 49, 63)" stroke="none" stroke-width="1px">16k</text><text x="1059.6875" y="0" dx="0em" dy="0.95em" style="text-anchor: middle; visibility: inherit; font-family: &quot;Helvetica Neue&quot;, sans-serif; font-size: 12px; font-weight: 200;" fill="rgb(50, 49, 63)" stroke="none" stroke-width="1px">18k</text><text x="1165.65625" y="0" dx="0em" dy="0.95em" style="text-anchor: middle; visibility: inherit; font-family: &quot;Helvetica Neue&quot;, sans-serif; font-size: 12px; font-weight: 200;" fill="rgb(50, 49, 63)" stroke="none" stroke-width="1px">20k</text><text x="1271.625" y="0" dx="0em" dy="0.95em" style="text-anchor: middle; visibility: inherit; font-family: &quot;Helvetica Neue&quot;, sans-serif; font-size: 12px; font-weight: 200;" fill="rgb(50, 49, 63)" stroke="none" stroke-width="1px">22k</text><text x="1377.59375" y="0" dx="0em" dy="0.95em" style="text-anchor: middle; visibility: inherit; font-family: &quot;Helvetica Neue&quot;, sans-serif; font-size: 12px; font-weight: 200;" fill="rgb(50, 49, 63)" stroke="none" stroke-width="1px">24k</text><text x="1483.5625" y="0" dx="0em" dy="0.95em" style="text-anchor: middle; visibility: hidden; font-family: &quot;Helvetica Neue&quot;, sans-serif; font-size: 12px; font-weight: 200;" fill="rgb(50, 49, 63)" stroke="none" stroke-width="1px">26k</text></g><line x1="0" y1="0" x2="1483.5625" y2="0" fill="rgb(0, 0, 0)" stroke="rgb(204, 204, 204)" stroke-width="1px"></line></g></g></g></g></svg>